<svg width="1600" height="960" viewBox="0 0 1600 960" fill="none" xmlns="http://www.w3.org/2000/svg">
  <defs>
    <linearGradient id="bg" x1="140" y1="80" x2="1460" y2="900" gradientUnits="userSpaceOnUse">
      <stop stop-color="#0F172A"/>
      <stop offset="1" stop-color="#111827"/>
    </linearGradient>
    <linearGradient id="panel" x1="0" y1="0" x2="1" y2="1">
      <stop stop-color="#0F172A" stop-opacity="0.96"/>
      <stop offset="1" stop-color="#111827" stop-opacity="0.88"/>
    </linearGradient>
    <linearGradient id="accent" x1="0" y1="0" x2="1" y2="1">
      <stop stop-color="#06B6D4"/>
      <stop offset="1" stop-color="#A855F7"/>
    </linearGradient>
    <filter id="shadow" x="-40%" y="-40%" width="180%" height="180%">
      <feDropShadow dx="0" dy="18" stdDeviation="24" flood-color="#020617" flood-opacity="0.35"/>
    </filter>
    <marker id="arrow" markerWidth="12" markerHeight="12" refX="10" refY="6" orient="auto">
      <path d="M0 0L12 6L0 12V0Z" fill="#06B6D4"/>
    </marker>
    <style>
      .title { fill: #E2E8F0; font: 800 42px Inter, "SF Pro Display", "Segoe UI", sans-serif; }
      .subtitle { fill: #94A3B8; font: 500 18px Inter, "SF Pro Display", "Segoe UI", sans-serif; }
      .section { fill: #F8FAFC; font: 700 22px Inter, "SF Pro Display", "Segoe UI", sans-serif; }
      .label { fill: #E2E8F0; font: 700 18px Inter, "SF Pro Display", "Segoe UI", sans-serif; }
      .body { fill: #94A3B8; font: 500 14px Inter, "SF Pro Display", "Segoe UI", sans-serif; }
      .chip { fill: #020617; font: 700 15px Inter, "SF Pro Display", "Segoe UI", sans-serif; }
      .small { fill: #CBD5E1; font: 600 13px Inter, "SF Pro Display", "Segoe UI", sans-serif; }
    </style>
  </defs>

  <rect width="1600" height="960" rx="36" fill="url(#bg)"/>
  <g opacity="0.08">
    <path d="M120 120H1480" stroke="#94A3B8" stroke-width="1" stroke-dasharray="4 8"/>
    <path d="M120 300H1480" stroke="#94A3B8" stroke-width="1" stroke-dasharray="4 8"/>
    <path d="M120 520H1480" stroke="#94A3B8" stroke-width="1" stroke-dasharray="4 8"/>
    <path d="M120 760H1480" stroke="#94A3B8" stroke-width="1" stroke-dasharray="4 8"/>
  </g>

  <text x="120" y="92" class="title">DARWIN Decision Rail</text>
  <text x="120" y="126" class="subtitle">A local-first, risk-first AI trading governance system powered by Claw, OKX Agent Trade Kit, and Paperclip AI.</text>

  <rect x="120" y="162" width="1360" height="118" rx="28" fill="rgba(6,182,212,0.05)" stroke="rgba(6,182,212,0.18)"/>
  <text x="158" y="210" class="section">Intent &amp; Control</text>
  <rect x="158" y="226" width="280" height="36" rx="18" fill="rgba(6,182,212,0.16)"/>
  <text x="188" y="250" class="chip">1. Set objective, risk tier, and asset whitelist</text>
  <rect x="470" y="192" width="272" height="68" rx="18" fill="rgba(15,23,42,0.82)" stroke="rgba(255,255,255,0.10)"/>
  <text x="496" y="221" class="label">Claw Intent Layer</text>
  <text x="496" y="243" class="body">Turns natural-language goals into an operating objective.</text>
  <rect x="772" y="192" width="312" height="68" rx="18" fill="rgba(15,23,42,0.82)" stroke="rgba(255,255,255,0.10)"/>
  <text x="798" y="221" class="label">DARWIN Dashboard</text>
  <text x="798" y="243" class="body">Operator surface for observability, approvals, and resets.</text>
  <rect x="1114" y="192" width="328" height="68" rx="18" fill="rgba(15,23,42,0.82)" stroke="rgba(255,255,255,0.10)"/>
  <text x="1140" y="221" class="label">Policy Envelope</text>
  <text x="1140" y="243" class="body">Risk profile, mode selection, approval gates, and capital constraints.</text>

  <g filter="url(#shadow)">
    <rect x="120" y="330" width="520" height="338" rx="28" fill="url(#panel)" stroke="rgba(168,85,247,0.20)"/>
    <text x="156" y="376" class="section">Paperclip Governance Layer</text>
    <text x="156" y="404" class="body">Specialized agents separate market sensing, risk enforcement, portfolio posture, and reporting.</text>

    <rect x="156" y="440" width="144" height="88" rx="18" fill="rgba(34,197,94,0.10)" stroke="rgba(34,197,94,0.26)"/>
    <text x="180" y="475" class="label">Market Analyst</text>
    <text x="180" y="498" class="body">15 min</text>
    <text x="180" y="518" class="body">Regime evidence</text>

    <rect x="318" y="440" width="144" height="88" rx="18" fill="rgba(239,68,68,0.10)" stroke="rgba(239,68,68,0.26)"/>
    <text x="348" y="475" class="label">Risk Agent</text>
    <text x="348" y="498" class="body">5 min</text>
    <text x="348" y="518" class="body">Halt enforcement</text>

    <rect x="478" y="420" width="126" height="128" rx="20" fill="rgba(6,182,212,0.12)" stroke="rgba(6,182,212,0.30)"/>
    <text x="500" y="475" class="label">CTO Agent</text>
    <text x="500" y="498" class="body">60 min</text>
    <text x="500" y="520" class="body">Posture + capital</text>

    <rect x="172" y="558" width="180" height="82" rx="18" fill="rgba(234,179,8,0.10)" stroke="rgba(234,179,8,0.26)"/>
    <text x="196" y="592" class="label">Strategy Manager</text>
    <text x="196" y="615" class="body">Promote / demote / retire</text>

    <rect x="374" y="558" width="188" height="82" rx="18" fill="rgba(168,85,247,0.10)" stroke="rgba(168,85,247,0.26)"/>
    <text x="406" y="592" class="label">Auditor</text>
    <text x="406" y="615" class="body">Daily reports + traceability</text>
  </g>

  <g filter="url(#shadow)">
    <rect x="674" y="330" width="454" height="338" rx="28" fill="url(#panel)" stroke="rgba(6,182,212,0.20)"/>
    <text x="710" y="376" class="section">DARWIN Core</text>
    <text x="710" y="404" class="body">This is where governance becomes action: state classification, capital policy, breakers, and strategy memory.</text>

    <rect x="710" y="438" width="180" height="90" rx="18" fill="rgba(59,130,246,0.10)" stroke="rgba(59,130,246,0.26)"/>
    <text x="738" y="474" class="label">State Recognizer</text>
    <text x="738" y="497" class="body">Oscillation / Trend / Extreme</text>
    <text x="738" y="517" class="body">With confirmation buffer</text>

    <rect x="908" y="438" width="184" height="90" rx="18" fill="rgba(6,182,212,0.10)" stroke="rgba(6,182,212,0.26)"/>
    <text x="934" y="474" class="label">Capital Allocator</text>
    <text x="934" y="497" class="body">Weighted scores + volatility</text>
    <text x="934" y="517" class="body">correlation discounts</text>

    <rect x="710" y="556" width="180" height="84" rx="18" fill="rgba(239,68,68,0.10)" stroke="rgba(239,68,68,0.26)"/>
    <text x="742" y="590" class="label">Circuit Breaker</text>
    <text x="742" y="613" class="body">T1 to T4 hard gates</text>

    <rect x="908" y="556" width="184" height="84" rx="18" fill="rgba(168,85,247,0.10)" stroke="rgba(168,85,247,0.26)"/>
    <text x="940" y="590" class="label">Strategy Archive</text>
    <text x="940" y="613" class="body">Templates, instances, history</text>

    <rect x="792" y="640" width="214" height="40" rx="20" fill="rgba(255,255,255,0.05)" stroke="rgba(255,255,255,0.10)"/>
    <text x="832" y="665" class="small">HTTP Bridge binds agents, UI, and execution</text>
  </g>

  <g filter="url(#shadow)">
    <rect x="1164" y="330" width="316" height="338" rx="28" fill="url(#panel)" stroke="rgba(34,197,94,0.20)"/>
    <text x="1200" y="376" class="section">OKX Agent Trade Kit</text>
    <text x="1200" y="404" class="body">Real account state and execution boundary. Local keys stay local.</text>

    <rect x="1200" y="438" width="244" height="84" rx="18" fill="rgba(34,197,94,0.10)" stroke="rgba(34,197,94,0.26)"/>
    <text x="1228" y="472" class="label">Market Data</text>
    <text x="1228" y="495" class="body">Candles, depth, funding, open interest</text>

    <rect x="1200" y="540" width="244" height="84" rx="18" fill="rgba(59,130,246,0.10)" stroke="rgba(59,130,246,0.26)"/>
    <text x="1228" y="574" class="label">Account &amp; Positions</text>
    <text x="1228" y="597" class="body">Equity, balances, leverage, inventory</text>

    <rect x="1200" y="642" width="244" height="84" rx="18" fill="rgba(249,115,22,0.10)" stroke="rgba(249,115,22,0.26)"/>
    <text x="1228" y="676" class="label">Execution Surface</text>
    <text x="1228" y="699" class="body">Spot, swap, bots, algo orders, exits</text>
  </g>

  <g filter="url(#shadow)">
    <rect x="120" y="734" width="1360" height="150" rx="28" fill="rgba(2,6,23,0.52)" stroke="rgba(255,255,255,0.08)"/>
    <text x="156" y="776" class="section">End-to-End Operating Loop</text>
    <text x="156" y="804" class="body">DARWIN is persuasive because every action stays on one accountable rail instead of being split across separate tools.</text>

    <rect x="156" y="826" width="184" height="34" rx="17" fill="rgba(6,182,212,0.16)"/><text x="186" y="848" class="chip">1. Sense the market</text>
    <rect x="360" y="826" width="206" height="34" rx="17" fill="rgba(59,130,246,0.16)"/><text x="390" y="848" class="chip">2. Classify regime</text>
    <rect x="586" y="826" width="230" height="34" rx="17" fill="rgba(168,85,247,0.16)"/><text x="616" y="848" class="chip">3. Allocate posture</text>
    <rect x="836" y="826" width="218" height="34" rx="17" fill="rgba(34,197,94,0.16)"/><text x="866" y="848" class="chip">4. Execute on OKX</text>
    <rect x="1074" y="826" width="188" height="34" rx="17" fill="rgba(239,68,68,0.16)"/><text x="1104" y="848" class="chip">5. Enforce halts</text>
    <rect x="1282" y="826" width="162" height="34" rx="17" fill="rgba(234,179,8,0.16)"/><text x="1312" y="848" class="chip">6. Audit daily</text>
  </g>

  <path d="M606 260V312" stroke="#06B6D4" stroke-width="4" stroke-linecap="round" marker-end="url(#arrow)"/>
  <path d="M928 260V312" stroke="#06B6D4" stroke-width="4" stroke-linecap="round" marker-end="url(#arrow)"/>
  <path d="M1278 260V312" stroke="#06B6D4" stroke-width="4" stroke-linecap="round" marker-end="url(#arrow)"/>
  <path d="M640 498H674" stroke="#A855F7" stroke-width="4" stroke-linecap="round" marker-end="url(#arrow)"/>
  <path d="M604 484H674" stroke="#06B6D4" stroke-width="4" stroke-linecap="round" marker-end="url(#arrow)"/>
  <path d="M640 600H710" stroke="#EF4444" stroke-width="4" stroke-linecap="round" marker-end="url(#arrow)"/>
  <path d="M1128 482H1164" stroke="#06B6D4" stroke-width="4" stroke-linecap="round" marker-end="url(#arrow)"/>
  <path d="M1128 598H1164" stroke="#EF4444" stroke-width="4" stroke-linecap="round" marker-end="url(#arrow)"/>
  <path d="M1322 522V734" stroke="#34D399" stroke-width="4" stroke-linecap="round" marker-end="url(#arrow)"/>
  <path d="M898 668V734" stroke="#06B6D4" stroke-width="4" stroke-linecap="round" marker-end="url(#arrow)"/>
  <path d="M468 640V734" stroke="#A855F7" stroke-width="4" stroke-linecap="round" marker-end="url(#arrow)"/>
</svg>
